<?xml version="1.0" encoding="utf-8"?>
<!-- Generator: Adobe Illustrator 16.0.4, SVG Export Plug-In . SVG Version: 6.00 Build 0)  -->
<!DOCTYPE svg PUBLIC "-//W3C//DTD SVG 1.1//EN" "http://www.w3.org/Graphics/SVG/1.1/DTD/svg11.dtd">
<svg version="1.1" id="Layer_1" xmlns="http://www.w3.org/2000/svg" xmlns:xlink="http://www.w3.org/1999/xlink" x="0px" y="0px"
	 width="284px" height="76px" viewBox="9.5 111.5 284 76" enable-background="new 9.5 111.5 284 76" xml:space="preserve">
<path fill="#1F759C" d="M58.52,149.013c0,9.868,0,19.835,0,29.704c0,0.987-0.099,1.086-1.085,1.086c-13.026,0-26.053,0-39.079,0
	c-0.79,0-1.283-0.395-1.283-1.283c0-19.736,0-39.375,0-59.112c0-0.888,0.296-1.184,1.184-1.184c13.125,0,26.25,0,39.375,0
	c0.79,0,0.888,0.099,0.888,0.888C58.52,129.178,58.52,139.046,58.52,149.013z M45.592,149.901c0.296-0.888,0.493-1.579,0.789-2.369
	c0.395-1.085,0.79-2.171,1.086-3.256c0.395-1.184,0.69-2.369,1.085-3.553c0.395-1.085,0.099-1.579-0.987-1.579
	c-0.099,0-0.197,0-0.296,0c-6.217,0-12.434,0-18.651,0c-0.198,0-0.395,0-0.592,0c-0.296,0.099-0.691,0.198-0.888,0.494
	c-0.296,0.494-0.395,1.085-0.592,1.579c-0.296,0.79-0.493,1.677-0.79,2.467c-0.395,1.184-0.789,2.369-1.184,3.553
	c-0.296,0.987-0.592,1.875-0.888,2.862c-0.296,0.888,0,1.48,0.987,1.579c1.579,0,3.158,0,4.737,0c0.691,0,0.79,0.099,0.494,0.69
	c-0.099,0.396-0.296,0.79-0.395,1.185c-0.493,1.578-1.085,3.158-1.579,4.736c-0.296,0.79,0,1.283,0.888,1.283
	c1.678,0,3.355,0,5.131,0c0.494,0,0.592,0.099,0.395,0.592c0,0.1-0.099,0.197-0.099,0.297c-0.494,1.678-0.987,3.355-1.48,5.032
	c-0.395,1.283-0.888,2.468-1.283,3.75c-0.296,0.79-0.494,1.678-0.79,2.468c-0.197,0.493-0.296,0.888,0.099,1.282
	c0.493,0.396,0.888,0,1.184-0.296c0.79-0.69,1.48-1.48,2.171-2.27c1.974-2.072,3.849-4.244,5.823-6.316
	c1.776-1.973,3.651-3.848,5.526-5.822c0.789-0.789,1.48-1.578,2.27-2.368c1.381-1.479,2.862-3.06,4.243-4.54
	c0.395-0.492,0.198-1.085-0.395-1.282c-0.197-0.099-0.395,0-0.592,0C49.244,149.901,47.467,149.901,45.592,149.901z M37.895,135.888
	c-3.256,0-6.513,0-9.671,0c-0.197,0-0.395,0-0.592,0c-0.395,0.099-0.493,0.395-0.493,0.691c0,0.395,0.099,0.592,0.493,0.592
	c0.494,0,0.987,0.197,1.48,0.197c5.822,0,11.645,0,17.467,0c0.493,0,1.085-0.099,1.579-0.197c0.198,0,0.494-0.197,0.494-0.395
	c0.099-0.197,0-0.592-0.197-0.691c-0.198-0.197-0.494-0.296-0.79-0.296C44.506,135.888,41.151,135.888,37.895,135.888z
	 M37.994,132.631c-2.171,0-4.342,0-6.612,0c-1.184,0-2.368,0-3.552,0c-0.592,0-0.79,0.296-0.691,0.888
	c0.099,0.494,0.493,0.494,0.79,0.494c6.612,0,13.322,0,19.934,0c0.099,0,0.197,0,0.197,0c0.197-0.099,0.494-0.197,0.592-0.395
	c0.099-0.197,0-0.592-0.197-0.69c-0.198-0.197-0.494-0.197-0.691-0.197C44.506,132.631,41.25,132.631,37.994,132.631z
	 M36.809,125.033L36.809,125.033c-1.085,0-2.27,0-3.355,0c-0.592,0-0.888,0.296-0.888,0.888c0,1.579,0,3.158,0,4.737
	c0,0.494,0.296,0.691,0.79,0.691c0.493,0,0.592-0.296,0.592-0.691c0-1.085,0-2.171,0-3.256c0-0.79,0-0.79,0.79-0.79
	c1.875,0,3.75,0,5.724,0c0.494,0,0.888-0.395,0.987-0.691c0-0.395-0.493-0.789-0.888-0.888c-0.099,0-0.296,0-0.395,0
	C38.881,125.033,37.895,125.033,36.809,125.033z M38.98,127.697c-0.494,0-0.987,0-1.382,0c-0.592,0-0.888,0.296-0.987,0.79
	c-0.099,0.691-0.099,1.48,0,2.27c0,0.494,0.395,0.592,0.79,0.592c0.493,0,0.592-0.296,0.691-0.691c0-0.197,0-0.296,0-0.493
	c0-0.79,0-0.79,0.789-0.79c0.79,0,0.79,0,0.79,0.79c0,0.099,0,0.296,0,0.395c0,0.592,0.296,0.79,0.79,0.79
	c0.494,0,0.79-0.197,0.79-0.79c0-0.592,0-1.283,0-1.875c0-0.592-0.395-0.888-0.987-0.888
	C39.869,127.697,39.474,127.697,38.98,127.697z"/>
<g>
	<path d="M78.849,152.961c0.197-0.1,0.197-0.1,0.197-0.1c3.849-0.395,3.849-0.395,3.849,3.355c0,2.764,0,5.428,0,8.289
		c3.553,0,7.007,0,10.56,0c0-3.256-0.099-6.414,0-9.572c0.099-1.479-0.395-2.664-1.382-3.75c-4.145-4.934-8.29-9.868-12.335-14.901
		c-0.592-0.79-0.987-1.974-0.987-3.059c-0.099-3.454,0-6.809-0.099-10.263c0-2.467,1.381-3.256,3.355-3.355
		c4.046-0.198,8.092-0.198,12.138,0c2.073,0.099,3.553,0.987,3.454,3.651c-0.099,3.257-0.099,6.513,0,9.77
		c0,1.085-0.395,1.48-1.381,1.381c-3.158,0-2.763,0.099-2.763-2.763c0-2.368,0-4.737,0-7.204c0-0.888-0.296-1.185-1.185-1.185
		c-2.763,0-5.526,0-8.289,0c-0.888,0-1.086,0.395-1.086,1.185c0,2.763-0.099,5.526,0.099,8.29c0.099,0.888,0.69,1.875,1.283,2.664
		c3.256,3.948,6.612,7.895,9.868,11.842c1.086,1.283,2.073,2.763,3.06,4.145c0.296,0.395,0.395,0.986,0.395,1.479
		c0,4.146,0,8.29,0,12.336c0,1.382-0.79,2.467-2.27,2.764c-0.79,0.197-1.579,0.296-2.27,0.296c-3.355,0-6.71,0-10.065,0
		c-0.79,0-1.678,0-2.27-0.296c-0.79-0.395-1.776-1.185-1.776-1.875C78.75,161.743,78.849,157.401,78.849,152.961z"/>
	<path d="M268.816,176.151c0-2.271,0-4.44,0-6.612c0-0.986-0.396-1.184-1.186-1.184c-2.072,0-4.145,0-6.217-0.099
		c-3.65-0.198-5.723-2.961-5.822-6.315c-0.099-6.021-0.099-11.941,0-17.961c0.1-2.369,0.987-4.441,3.355-5.428
		c0.395-0.197,0.789-0.296,1.185-0.296c1.874,0.099,3.749,0.395,5.625,0.395c1.677,0,3.354-0.296,5.132-0.395
		c0.592-0.099,1.282,0,1.973,0c0,0.592,0.1,0.986,0.1,1.381c0,12.138,0,24.276,0,36.415c0,2.467-1.48,3.849-3.75,3.75
		c-3.158-0.099-6.415-0.099-9.672,0c-2.072,0.099-3.453-1.48-3.553-3.553c0-0.493,0-0.986,0-1.381c0-2.566,0.691-3.158,3.258-2.566
		c0.295,0.099,0.689,0.592,0.689,0.986c0.1,0.889,0,1.875,0,2.862C262.993,176.151,265.855,176.151,268.816,176.151z
		 M268.717,164.605c0-7.401,0-14.704,0-22.007c0-0.296-0.592-0.79-0.888-0.888c-1.776-0.099-3.651,0-5.428-0.099
		c-1.678-0.099-2.862,1.48-2.96,2.862c-0.1,5.822,0,11.645,0,17.468c0,1.282,1.085,2.664,2.072,2.664
		C263.881,164.605,266.25,164.605,268.717,164.605z"/>
	<path d="M105.197,158.98c0-6.514,0-12.928,0-19.441c0-1.184,0.296-1.579,1.48-1.48c1.776,0.197,3.651,0.494,5.428,0.494
		c1.974,0,4.046-0.395,6.02-0.592c0.592-0.099,1.283,0,1.974,0.099c1.382,0.197,2.27,0.987,2.27,2.467
		c0.099,2.467,0.099,4.835,0.099,7.303c0,4.539,0,9.079,0,13.618c0,2.764-0.888,5.033-3.651,6.217
		c-1.085,0.494-2.369,0.593-3.553,0.691c-1.382,0.099-2.763,0-4.145,0c-1.776,0-1.776,0-1.776,1.776c0,2.763,0,5.526,0,8.289
		c0,0.987-0.296,1.283-1.283,1.382c-2.862,0.099-2.862,0.099-2.862-2.764C105.197,171.02,105.197,165,105.197,158.98z
		 M109.342,164.605c2.072,0,4.046-0.1,6.02,0c1.776,0.099,2.96-1.283,2.96-2.961c-0.099-6.315,0-12.533,0-18.849
		c0-0.79-0.197-1.184-1.085-1.184c-2.171,0.099-4.342,0.197-6.513,0.197c-1.184,0-1.381,0.494-1.381,1.579
		c0,6.612,0,13.223,0,19.934C109.244,163.717,109.342,164.111,109.342,164.605z"/>
	<path d="M195.986,137.862c1.678,0.296,2.961,0.691,4.343,0.79c0.987,0.099,1.974,0,2.96-0.099c2.566-0.099,5.132-0.395,7.697-0.395
		c1.185,0,1.975,0.888,1.975,2.073c0.098,1.579,0.098,3.158,0.098,4.638c0,5.921,0,11.843-0.098,17.862
		c0,2.664-2.072,5.033-4.737,5.328c-2.171,0.297-4.343,0.198-6.513,0.297c-1.678,0-1.777,0.099-1.777,1.776c0,2.763,0,5.427,0,8.19
		c0,1.086-0.395,1.579-1.479,1.48c-2.961-0.099-2.468,0.296-2.468-2.467c0-12.435,0-24.869,0-37.303
		C195.986,139.441,195.986,138.947,195.986,137.862z M200.131,164.605c2.073,0,4.146,0,6.218,0c1.776,0,2.763-0.987,2.763-2.862
		c0-6.315,0-12.631,0-19.046c0-0.79-0.295-1.184-1.184-1.085c-2.072,0.099-4.047,0.099-6.119,0.197
		c-1.875,0.099-1.875,0.099-1.875,1.974c0,6.415,0,12.731,0,19.145C200.033,163.52,200.131,164.014,200.131,164.605z"/>
	<path d="M178.914,150c2.172-3.553,4.441-7.007,6.612-10.559c0.593-0.888,1.185-1.382,2.27-1.283c0.888,0.099,1.678,0,2.96,0
		c-0.986,1.48-1.677,2.665-2.467,3.948c-1.973,2.96-3.848,5.921-5.822,8.881c-0.197,0.297-0.296,0.987-0.098,1.382
		c2.762,4.935,5.625,9.771,8.387,14.704c0.494,0.789,0.198,1.283-0.689,1.382c-0.691,0-1.383,0.099-1.975,0
		c-0.592-0.197-1.381-0.493-1.678-0.987c-2.467-4.44-4.835-8.881-7.203-13.322c-0.1-0.099-0.1-0.296-0.494-0.493
		c-0.098,0.493-0.197,0.987-0.197,1.48c0,3.947,0,7.895,0,11.842c0,1.185-0.395,1.48-1.48,1.48c-3.059,0-2.565,0.099-2.565-2.468
		c0-14.803,0-29.704,0-44.506c0-1.875,0-1.875,1.974-1.875c0.297,0,0.494,0,0.789,0c1.086-0.099,1.383,0.395,1.383,1.381
		c0,0.395,0,0.79,0,1.184c0,8.685,0,17.467,0,26.151c0,0.592,0.098,1.085,0.098,1.678C178.717,149.901,178.816,149.901,178.914,150z
		"/>
	<path d="M142.105,150.592c0-3.059,0-5.921,0-8.98c-2.763,0-5.428,0-8.092,0c-0.197,0-0.691,0.494-0.691,0.79
		c-0.099,1.085-0.099,2.171,0,3.256c0,0.79-0.296,1.085-1.085,1.085c-2.96,0.198-2.96,0.198-2.96-2.763
		c0-1.48,0.197-2.961,0.493-4.342c0.296-1.085,1.283-1.579,2.467-1.579c3.651,0,7.401,0,11.053,0c1.579,0,2.96,1.579,2.96,3.059
		c-0.099,8.586,0,17.271,0,25.855c0,0.888-0.296,1.382-1.184,1.283c-1.085-0.198-2.369,0.592-3.158-0.79
		c-0.099-0.197-0.69,0-1.085,0c-2.665,0.297-5.428,0.79-8.092,0.987c-2.467,0.197-3.651-0.987-3.651-3.454
		c-0.099-3.651,0-7.303,0-10.954c0-2.565,0.888-3.454,3.849-3.651C135.888,150.395,138.947,150.592,142.105,150.592z
		 M142.105,164.605c0-3.651,0-7.105,0-10.658c-2.862,0-5.526,0-8.29,0c-0.79,0-0.987,0.395-0.987,1.184c0,2.271,0,4.54,0,6.811
		c0,0.888-0.197,2.17,0.296,2.564c0.494,0.494,1.678,0.198,2.665,0.297c1.085,0,2.072,0,3.158,0
		C139.934,164.605,141.02,164.605,142.105,164.605z"/>
	<path d="M231.316,138.256c1.381,0,2.664,0,3.947,0c0,8.783,0,17.467,0,26.25c3.157,0,6.117,0,9.375,0c0-8.782,0-17.466,0-26.348
		c1.184,0,2.27,0,3.354,0c0.296,0,0.593,0.395,0.69,0.691c0.1,0.296,0,0.592,0,0.888c0,8.881,0,17.763,0,26.644
		c0,0.593-0.395,1.678-0.69,1.678c-1.085,0.1-2.368,0.297-3.157-0.197c-0.691-0.395-1.086-0.395-1.678-0.295
		c-2.862,0.295-5.725,0.689-8.685,0.888c-1.875,0.099-3.257-1.382-3.257-3.257c0-8.783,0-17.566,0-26.25
		C231.316,138.849,231.316,138.651,231.316,138.256z"/>
	<path d="M224.211,144.079c0,7.5,0,15.099,0,22.599c0,1.381-0.395,1.776-1.678,1.678c-0.197,0-0.395,0-0.691,0
		c-1.578,0-1.678-0.197-1.678-1.776c0-11.743,0-23.487,0-35.23c0-3.355,0-6.809,0-10.165c0-1.579,0.1-1.678,1.777-1.678
		c2.467,0,2.27-0.395,2.27,2.27C224.211,129.276,224.211,136.678,224.211,144.079z"/>
	<path d="M153.256,137.862c1.58,0.296,2.961,0.592,4.244,0.79c0.789,0.099,1.678,0,2.467-0.099c2.072-0.197,4.145-0.395,6.316-0.494
		c1.775-0.099,2.467,0.987,2.664,2.665c0.197,2.171,0.099,4.342,0,6.513c0,0.296-0.395,0.79-0.691,0.79
		c-0.986,0.099-2.072,0-3.256,0c0-1.776,0-3.454,0-5.132c0-0.987-0.395-1.283-1.283-1.283c-1.875,0.197-3.75,0.197-5.525,0.395
		c-0.297,0-0.79,0.592-0.889,0.986c-0.099,1.185,0,2.369,0,3.553c0,6.71,0,13.421,0,20.132c0,1.579-0.197,1.678-1.776,1.678
		c-0.197,0-0.396,0-0.69,0c-1.185,0.197-1.678-0.297-1.678-1.579c0.098-3.257,0-6.513,0-9.771c0-5.723,0-11.447,0-17.17
		C153.256,139.441,153.256,138.947,153.256,137.862z"/>
</g>
<path fill="#FFFFFF" d="M45.592,149.901c1.875,0,3.651,0,5.427,0c0.198,0,0.395,0,0.592,0c0.592,0.197,0.888,0.79,0.395,1.282
	c-1.381,1.48-2.862,3.06-4.243,4.54c-0.79,0.79-1.48,1.579-2.27,2.368c-1.875,1.975-3.651,3.85-5.526,5.822
	c-1.974,2.072-3.849,4.244-5.823,6.316c-0.69,0.789-1.48,1.48-2.171,2.27c-0.296,0.296-0.691,0.691-1.184,0.296
	c-0.494-0.395-0.395-0.789-0.099-1.282c0.296-0.79,0.493-1.678,0.79-2.468c0.395-1.282,0.888-2.467,1.283-3.75
	c0.493-1.678,0.987-3.354,1.48-5.032c0-0.1,0.099-0.197,0.099-0.297c0.197-0.493,0.099-0.592-0.395-0.592c-1.678,0-3.355,0-5.131,0
	c-0.888,0-1.185-0.493-0.888-1.283c0.592-1.578,1.085-3.158,1.579-4.736c0.099-0.395,0.296-0.789,0.395-1.185
	c0.197-0.592,0.197-0.69-0.494-0.69c-1.579,0-3.158,0-4.737,0c-0.987,0-1.381-0.592-0.987-1.579
	c0.296-0.888,0.592-1.875,0.888-2.862c0.395-1.184,0.79-2.369,1.184-3.553c0.296-0.79,0.494-1.678,0.79-2.467
	c0.198-0.493,0.296-1.085,0.592-1.579c0.099-0.198,0.592-0.296,0.888-0.494c0.197-0.099,0.395,0,0.592,0c6.217,0,12.434,0,18.651,0
	c0.099,0,0.198,0,0.296,0c1.085,0,1.381,0.494,0.987,1.579c-0.395,1.184-0.691,2.368-1.085,3.553
	c-0.395,1.085-0.691,2.171-1.086,3.256C46.085,148.322,45.888,149.112,45.592,149.901z M49.54,151.678
	C49.54,151.678,49.54,151.579,49.54,151.678c-0.888-0.099-1.678-0.099-2.467-0.099s-1.579,0-2.27,0s-1.184-0.493-0.987-0.987
	c0.395-1.283,0.79-2.565,1.184-3.849c0.592-1.677,1.184-3.454,1.678-5.131c0.296-0.79,0.197-0.79-0.592-0.79
	c-5.625,0-11.25,0-16.974,0c-0.197,0-0.296,0-0.493,0c-0.099,0-0.296,0.099-0.296,0.197c-0.296,0.79-0.493,1.48-0.79,2.27
	c-0.395,1.184-0.789,2.467-1.184,3.651c-0.296,0.987-0.691,1.974-0.987,3.059c0.296,0,0.494,0,0.691,0c1.579,0,3.256,0,4.835,0
	c0.691,0,1.085,0.296,0.987,1.086c0,0.197-0.099,0.395-0.197,0.592c-0.296,0.889-0.592,1.776-0.888,2.664
	c-0.395,1.086-0.691,2.172-1.085,3.257c-0.198,0.593-0.198,0.69,0.395,0.69c1.776,0,3.454,0,5.23,0c0.79,0,1.085,0.395,0.79,1.185
	c-0.494,1.382-0.888,2.763-1.382,4.145c-0.395,1.185-0.79,2.368-1.184,3.651c-0.197,0.592-0.296,1.185-0.494,1.776
	c0,0,0.099,0,0.099,0.099C38.684,163.224,44.112,157.5,49.54,151.678z"/>
<path fill="#FFFFFF" d="M37.895,135.888c3.257,0,6.513,0,9.77,0c0.296,0,0.592,0.099,0.79,0.296
	c0.197,0.197,0.197,0.494,0.197,0.691s-0.296,0.395-0.494,0.395c-0.493,0.099-1.085,0.198-1.579,0.198c-5.823,0-11.645,0-17.467,0
	c-0.493,0-0.987-0.099-1.48-0.198c-0.395,0-0.493-0.296-0.493-0.592c0-0.395,0.099-0.691,0.493-0.691c0.198,0,0.395,0,0.592,0
	C31.48,135.888,34.737,135.888,37.895,135.888z"/>
<path fill="#FFFFFF" d="M37.994,132.631c3.256,0,6.513,0,9.77,0c0.296,0,0.592,0.099,0.691,0.198
	c0.197,0.197,0.197,0.493,0.197,0.69c-0.099,0.198-0.395,0.296-0.592,0.395c-0.099,0-0.099,0-0.197,0c-6.612,0-13.322,0-19.934,0
	c-0.395,0-0.79,0-0.79-0.494c-0.099-0.592,0.197-0.888,0.691-0.888c1.184,0,2.368,0,3.552,0
	C33.651,132.631,35.822,132.631,37.994,132.631z"/>
<path fill="#FFFFFF" d="M36.809,125.033c1.085,0,2.072,0,3.158,0c0.099,0,0.296,0,0.395,0c0.494,0,0.987,0.494,0.888,0.888
	c0,0.395-0.494,0.691-0.987,0.691c-1.875,0-3.75,0-5.724,0c-0.79,0-0.79,0-0.79,0.79c0,1.085,0,2.171,0,3.256
	c0,0.395-0.099,0.691-0.592,0.691c-0.493,0-0.789-0.197-0.789-0.691c0-1.579,0-3.158,0-4.737c0-0.592,0.296-0.888,0.888-0.888
	C34.54,125.033,35.724,125.033,36.809,125.033L36.809,125.033z"/>
<path fill="#FFFFFF" d="M38.98,127.697c0.493,0,0.987,0,1.381,0c0.592,0,0.888,0.296,0.987,0.888c0,0.592,0,1.283,0,1.875
	s-0.197,0.79-0.79,0.79c-0.592,0-0.79-0.197-0.79-0.79c0-0.099,0-0.296,0-0.395c0-0.79,0-0.79-0.789-0.79c-0.79,0-0.79,0-0.79,0.79
	c0,0.197,0,0.296,0,0.493c-0.099,0.395-0.296,0.691-0.691,0.691c-0.494,0-0.79-0.099-0.79-0.592c-0.099-0.79-0.099-1.48,0-2.27
	c0.099-0.494,0.395-0.79,0.987-0.79C37.994,127.796,38.487,127.697,38.98,127.697z"/>
<path fill="#1F759C" d="M49.54,151.678c-5.428,5.724-10.757,11.447-16.184,17.171c0,0-0.099,0-0.099-0.099
	c0.198-0.592,0.296-1.184,0.494-1.776c0.395-1.185,0.79-2.368,1.184-3.651c0.494-1.381,0.888-2.764,1.382-4.145
	c0.296-0.789,0-1.185-0.79-1.185c-1.776,0-3.454,0-5.23,0c-0.592,0-0.592-0.099-0.395-0.69c0.395-1.086,0.691-2.172,1.085-3.257
	c0.296-0.888,0.592-1.776,0.888-2.665c0.099-0.197,0.099-0.395,0.197-0.592c0.197-0.789-0.296-1.085-0.987-1.085
	c-1.579,0-3.256,0-4.835,0c-0.197,0-0.395,0-0.691,0c0.395-1.086,0.691-2.073,0.987-3.06c0.395-1.184,0.79-2.467,1.185-3.651
	c0.197-0.789,0.493-1.48,0.789-2.27c0-0.099,0.198-0.197,0.296-0.197c0.197,0,0.296,0,0.493,0c5.625,0,11.25,0,16.974,0
	c0.888,0,0.888,0,0.592,0.79c-0.592,1.677-1.184,3.454-1.678,5.131c-0.395,1.283-0.79,2.566-1.184,3.849
	c-0.099,0.493,0.395,0.987,0.987,0.987c0.79,0,1.579,0,2.27,0c0.79,0,1.579,0,2.369,0C49.441,151.678,49.441,151.678,49.54,151.678z
	"/>
<g>
	<path d="M279.869,143.29c-0.691-0.395-1.283-0.987-1.678-1.678c-0.396-0.691-0.593-1.48-0.593-2.27c0-0.79,0.197-1.579,0.593-2.27
		c0.395-0.691,0.986-1.283,1.678-1.678c0.689-0.395,1.479-0.592,2.27-0.592c0.789,0,1.578,0.197,2.27,0.592
		c0.69,0.395,1.283,0.987,1.678,1.678s0.592,1.48,0.592,2.27c0,0.789-0.197,1.579-0.592,2.27s-0.987,1.184-1.678,1.678
		c-0.691,0.395-1.48,0.592-2.27,0.592C281.25,143.881,280.559,143.684,279.869,143.29z M284.704,142.007
		c0.69-0.691,0.987-1.579,0.987-2.665c0-0.691-0.198-1.382-0.494-1.974c-0.296-0.592-0.691-0.987-1.283-1.283
		s-1.184-0.493-1.875-0.493c-1.085,0-1.973,0.296-2.664,0.987c-0.691,0.69-0.986,1.579-0.986,2.664c0,1.086,0.295,1.974,0.986,2.665
		c0.691,0.691,1.579,0.987,2.664,0.987C283.224,142.993,284.111,142.697,284.704,142.007z M283.816,141.612
		C283.816,141.612,283.717,141.612,283.816,141.612h-0.691c0,0-0.099,0-0.099-0.099l-0.69-1.974c0,0,0,0,0-0.099s0,0-0.1,0h-0.986
		c0,0-0.099,0-0.099,0.099v1.875c0,0.099,0,0.099-0.099,0.099h-0.592c-0.1,0-0.1,0-0.1-0.099v-4.342c0-0.099,0-0.099,0.1-0.099
		h1.973c0.494,0,0.889,0.099,1.086,0.296c0.197,0.198,0.395,0.494,0.395,0.888c0,0.592-0.296,0.987-0.888,1.185c0,0,0,0,0,0.099
		l0.79,1.974C283.816,141.513,283.816,141.513,283.816,141.612z M283.125,138.355c0-0.395-0.296-0.592-0.889-0.592h-0.986l0,0l0,0
		c0,0,0,0,0,0.099v0.987c0,0.099,0,0.099,0.099,0.099h1.085C282.829,138.947,283.125,138.75,283.125,138.355z"/>
</g>
</svg>

